<?xml version="1.0" encoding="iso-8859-1"?>
<!-- Generator: Adobe Illustrator 19.0.0, SVG Export Plug-In . SVG Version: 6.00 Build 0)  -->
<svg version="1.1" id="Layer_1" xmlns="http://www.w3.org/2000/svg" xmlns:xlink="http://www.w3.org/1999/xlink" x="0px" y="0px"
	 viewBox="0 0 481.882 481.882" style="enable-background:new 0 0 481.882 481.882;" xml:space="preserve">
<path style="fill:#FDD835;" d="M86.438,0C77.854,0,69.685,3.659,63.97,10.059s-8.425,14.931-7.454,23.454l30.803,271.059
	c1.724,15.224,14.607,26.722,29.922,26.722h247.394c15.315,0,28.198-11.497,29.929-26.722l30.81-271.059
	c0.971-8.523-1.747-17.062-7.454-23.454C412.19,3.659,404.021,0,395.445,0H86.438z"/>
<g>
	<path style="fill:#FFEE58;" d="M240.941,0H86.438C77.854,0,69.685,3.659,63.97,10.059s-8.425,14.931-7.454,23.454l30.803,271.059
		c1.724,15.224,14.607,26.722,29.922,26.722h123.701V0z"/>
	<path style="fill:#FFEE58;" d="M472.237,299.174c-5.263-11.309-18.703-16.203-30.012-10.94l-92.476,43.061h11.663v44.393
		l99.885-46.509C472.606,323.923,477.5,310.483,472.237,299.174z"/>
	<path style="fill:#FFEE58;" d="M9.645,299.174c5.263-11.309,18.703-16.203,30.012-10.94l92.476,43.061h-11.663v44.393
		l-99.885-46.502C9.276,323.923,4.382,310.483,9.645,299.174z"/>
</g>
<circle style="fill:#FFFFFF;" cx="195.765" cy="135.529" r="45.176"/>
<circle style="fill:#1E88E5;" cx="203.294" cy="135.529" r="15.059"/>
<circle style="fill:#FFFFFF;" cx="286.118" cy="135.529" r="45.176"/>
<circle style="fill:#1E88E5;" cx="278.588" cy="135.529" r="15.059"/>
<circle style="fill:#FBC02D;" cx="308.706" cy="37.647" r="30.118"/>
<g>
	<circle style="fill:#FDD835;" cx="120.471" cy="60.235" r="30.118"/>
	<circle style="fill:#FDD835;" cx="210.824" cy="45.176" r="15.059"/>
</g>
<g>
	<circle style="fill:#FBC02D;" cx="368.941" cy="75.294" r="15.059"/>
	<circle style="fill:#FBC02D;" cx="368.941" cy="158.118" r="15.059"/>
</g>
<circle style="fill:#FDD835;" cx="112.941" cy="173.176" r="15.059"/>
<circle style="fill:#FBC02D;" cx="353.882" cy="278.588" r="15.059"/>
<circle style="fill:#FDD835;" cx="135.529" cy="286.118" r="22.588"/>
<path style="fill:#EF5350;" d="M346.353,203.294c-20.939-20.939-21.06,15.059-105.412,15.059s-84.472-35.998-105.412-15.059
	s37.647,75.294,105.412,75.294S367.292,224.233,346.353,203.294z"/>
<g>
	<path style="fill:#FFFFFF;" d="M203.294,215.432v25.51h30.118v-22.694C221.704,217.939,211.81,216.892,203.294,215.432z"/>
	<path style="fill:#FFFFFF;" d="M278.588,215.432c-8.516,1.453-18.409,2.507-30.118,2.816v22.694h30.118V215.432z"/>
	<rect x="120.471" y="331.294" style="fill:#FFFFFF;" width="240.941" height="90.353"/>
</g>
<rect x="120.471" y="391.529" style="fill:#824E3E;" width="240.941" height="30.118"/>
<polygon style="fill:#EF5350;" points="225.882,331.294 225.882,361.412 240.941,391.529 256,361.412 256,331.294 "/>
<g>
	<path style="fill:#212121;" d="M301.176,421.647v45.176c0,8.312,6.746,15.059,15.059,15.059h75.294
		c61.591,0,22.588-90.353-60.235-30.118v-30.118H301.176z"/>
	<path style="fill:#212121;" d="M180.706,421.647v45.176c0,8.312-6.746,15.059-15.059,15.059H90.353
		c-61.591,0-22.588-90.353,60.235-30.118v-30.118H180.706z"/>
</g>
<g>
	<rect x="150.588" y="421.647" style="fill:#FFFFFF;" width="30.118" height="22.588"/>
	<rect x="301.176" y="421.647" style="fill:#FFFFFF;" width="30.118" height="22.588"/>
</g>
<g>
</g>
<g>
</g>
<g>
</g>
<g>
</g>
<g>
</g>
<g>
</g>
<g>
</g>
<g>
</g>
<g>
</g>
<g>
</g>
<g>
</g>
<g>
</g>
<g>
</g>
<g>
</g>
<g>
</g>
</svg>
